<svg width="32" height="32" viewBox="0 0 32 32" fill="none" xmlns="http://www.w3.org/2000/svg">
  <!-- Shield Background -->
  <path d="M16 2L26 6V14C26 21 21 26.5 16 30C11 26.5 6 21 6 14V6L16 2Z" fill="#2563eb" stroke="#1d4ed8" stroke-width="1"/>
  
  <!-- Network Nodes -->
  <circle cx="16" cy="12" r="2" fill="white"/>
  <circle cx="12" cy="16" r="1.5" fill="white"/>
  <circle cx="20" cy="16" r="1.5" fill="white"/>
  <circle cx="14" cy="20" r="1.5" fill="white"/>
  <circle cx="18" cy="20" r="1.5" fill="white"/>
  
  <!-- Network Connections -->
  <line x1="16" y1="12" x2="12" y2="16" stroke="white" stroke-width="1" opacity="0.8"/>
  <line x1="16" y1="12" x2="20" y2="16" stroke="white" stroke-width="1" opacity="0.8"/>
  <line x1="12" y1="16" x2="14" y2="20" stroke="white" stroke-width="1" opacity="0.8"/>
  <line x1="20" y1="16" x2="18" y2="20" stroke="white" stroke-width="1" opacity="0.8"/>
  <line x1="14" y1="20" x2="18" y2="20" stroke="white" stroke-width="1" opacity="0.8"/>
  
  <!-- Scanning Wave -->
  <circle cx="16" cy="12" r="4" fill="none" stroke="white" stroke-width="0.5" opacity="0.3"/>
  <circle cx="16" cy="12" r="6" fill="none" stroke="white" stroke-width="0.3" opacity="0.2"/>
</svg>